<svg width="30" height="30" viewBox="0 0 512 384" fill="none" xmlns="http://www.w3.org/2000/svg">
<path stroke="#919294" stroke-width="10" d="M426 0.999974C424.6 1.59997 411.3 14.3 396.3 29.2L369.2 56.3L356.3 51.3C335.5 43 315.7 37.8 292.5 34.3C274.1 31.6 235.4 31.9 216.1 34.9C165.2 42.7 120.2 63 77.6 97.3C64.1 108.1 38.5 133.9 27.6 147.5C15.8 162.4 1.2 184.3 0.399999 188.5C-0.700001 194.5 0.799999 198.5 9 210.8C33 247.1 67.4 281.7 102 304.5C107.8 308.3 112.7 311.5 112.9 311.7C113.2 311.9 102.5 323 89.3 336.3C68.6 357 65.1 361 64.5 364.3C63.4 370.3 64.8 375 68.9 379.1C73 383.2 77.7 384.6 83.7 383.5C87.1 382.9 106.4 363.9 266.8 203.7C398.5 72 446.3 23.6 447.1 21.1C449.3 14.4 446.9 7.19997 440.8 2.69997C437.7 0.399974 429.7 -0.500026 426 0.999974ZM290 66.5C307.2 69.1 326.3 74.1 341.4 80L344.4 81.1L328 97.5L311.6 113.9L308.9 112C303.7 108.2 287.4 101 279.5 98.8C268.9 96 245.1 95.7 234.6 98.3C216.3 102.9 201.8 111.1 188.4 124.4C175.1 137.8 166.9 152.4 162.3 170.6C159.6 181.4 159.9 204 162.8 215C165.1 223.3 171.7 238.4 175.9 244.5L177.9 247.6L157.6 267.9L137.3 288.2L127.8 282.3C94.6 261.4 60.9 229.6 40 199.4L34.9 192L39.9 184.7C57.6 159.1 88.4 128.3 114.5 109.9C149.7 85.1 191.3 69.4 232.6 65.1C245 63.8 277.4 64.6 290 66.5ZM270.2 129.9C276.4 131.5 288 136.3 288 137.3C288 137.4 268.5 157 244.6 180.9L201.2 224.3L198.5 219.1C194.9 211.8 192 200 192 192.1C192.1 151.2 231.4 120 270.2 129.9Z" fill="#919294"/>
<path stroke="#919294" stroke-width="10" d="M413.7 101.8C407.8 107.7 403 113 403.1 113.5C403.1 114.1 407 117.5 411.8 121.2C432.3 136.9 459.3 165.7 473.9 187.2L477.1 192L473 198C455.8 223.4 425.9 253.7 399.5 272.6C354.3 305 301.5 321.5 249 319.6C232.6 319.1 227.5 318.5 210.7 315.4L201.8 313.7L188.9 326.6C179.6 335.9 176.4 339.6 177.4 340.2C180.2 341.8 203.9 347.1 217.5 349.2C236.2 352.1 274.3 352.3 292.5 349.7C357 340.2 410.8 312.4 460 263.1C477.6 245.4 489.1 231.5 502 212.2C514.9 193 514.9 191.3 503.2 173.4C492 156.4 476.7 137.7 460.5 121.4C446.8 107.6 427.7 90.9999 425.6 90.9999C425 90.9999 419.6 95.7999 413.7 101.8Z" fill="#919294"/>
<path stroke="#919294" stroke-width="10" d="M333.6 181.9L319.8 195.7L318.5 203.6C316.9 212.8 311.2 225 305.1 232.3C295.7 243.6 281.3 252.1 267.6 254.5L259.7 255.8L245.6 269.9C237.9 277.6 231.9 284.2 232.2 284.5C233.4 285.7 248.7 287.9 256.1 288C281.4 288.1 304.7 278.2 323.5 259.5C342.8 240.2 351.3 219.9 351.4 193C351.5 180.5 349.8 168 348.2 168C347.8 168 341.3 174.2 333.6 181.9Z" fill="#919294"/>
</svg>
