<?xml version="1.0" standalone="no"?>
<!DOCTYPE svg PUBLIC "-//W3C//DTD SVG 20010904//EN"
 "http://www.w3.org/TR/2001/REC-SVG-20010904/DTD/svg10.dtd">
<svg version="1.0" xmlns="http://www.w3.org/2000/svg"
 width="512" height="512" viewBox="0 0 530 512"
 preserveAspectRatio="xMidYMid meet">

<g transform="translate(0.000000,512.000000) scale(0.100000,-0.100000)"
fill="#919294" >
<path stroke="#919294" stroke-width="300" d="M2230 5110 c-494 -39 -902 -135 -1226 -289 -320 -153 -517 -348 -565
-559 -13 -60 -13 -3345 1 -3406 80 -357 597 -662 1340 -790 495 -86 1074 -86
1570 0 375 65 750 199 974 348 195 130 322 287 356 443 14 59 14 3346 0 3406
-91 407 -733 735 -1630 832 -172 19 -656 27 -820 15z m565 -210 c705 -39 1291
-223 1556 -489 168 -169 168 -334 0 -501 -499 -497 -2005 -654 -3021 -314
-145 49 -370 160 -465 231 -189 140 -258 284 -205 426 123 327 820 602 1642
646 214 12 285 12 493 1z m-1960 -1310 c615 -378 1755 -497 2715 -284 307 68
657 216 838 354 l93 71 -3 -354 -3 -353 -27 -52 c-39 -75 -74 -116 -156 -182
-254 -206 -669 -347 -1232 -417 -208 -26 -792 -26 -1000 0 -658 82 -1156 278
-1345 530 -72 95 -75 113 -75 495 l0 334 63 -50 c34 -27 94 -69 132 -92z
m-127 -977 c79 -64 142 -103 268 -166 788 -394 2175 -419 3049 -57 148 62 313
157 405 235 l45 38 3 -79 c2 -44 2 -203 0 -354 l-3 -275 -29 -55 c-108 -206
-448 -397 -906 -509 -550 -135 -1246 -146 -1820 -31 -527 107 -927 313 -1047
541 l-28 54 -3 353 c-2 193 0 352 3 352 3 0 31 -21 63 -47z m140 -1164 c287
-175 696 -296 1197 -356 215 -25 815 -25 1030 0 594 71 1064 231 1343 457 l63
51 -3 -353 -3 -353 -29 -60 c-36 -73 -133 -172 -231 -237 -632 -417 -1964
-510 -2885 -202 -145 49 -370 160 -465 231 -96 71 -155 136 -192 212 l-28 56
-3 353 -3 353 63 -51 c35 -28 100 -74 146 -101z"/>
</g>
</svg>
