<svg width="10" height="10" viewBox="0 0 394 512" fill="none" xmlns="http://www.w3.org/2000/svg">
<g filter="url(#filter0_d_14_22)">
<path stroke="#919294" stroke-width="20" d="M183 0.599992C162.2 3.29999 142.3 10.7 125 22.3C115.4 28.7 97.7 46.4 91.3 56C82.1 69.7 75.8 84.2 71.8 101C69.9 108.7 69.7 113.5 69.3 150.7L68.8 192H58.1C51.7 192 45 192.6 41.5 193.5C24.3 198 11 211.4 6.49998 228.7C4.29998 237.3 4.29998 466.7 6.49998 475.3C11 492.6 24.3 506 41.5 510.5C46.7 511.8 65.9 512 197 512C328.1 512 347.3 511.8 352.5 510.5C369.7 506 383 492.6 387.5 475.3C389.7 466.7 389.7 237.3 387.5 228.7C383 211.4 369.7 198 352.5 193.5C349 192.6 342.3 192 335.9 192H325.2L324.7 150.7C324.3 113.5 324.1 108.7 322.2 101C316 75.3 305.2 56 287.1 37.9C268.6 19.4 249.1 8.59999 224 2.89999C215.7 0.999992 190.9 -0.400008 183 0.599992ZM220.1 34.9C238.3 39.6 252.1 47.7 265.5 61.4C275 71.1 281.7 81.3 286.4 93.1C292.1 107.8 292.3 109.4 292.7 152.2L293.1 192H197H100.9L101.2 152.2C101.6 115.5 101.8 111.9 103.7 104.9C108.8 86.5 116.7 73 129.9 60C145.3 44.7 160.2 37.3 185 32.6C190.9 31.5 212.7 32.9 220.1 34.9ZM349.6 226.6C351.1 227.7 353.3 229.9 354.4 231.4C356.5 234.1 356.5 234.7 356.8 350.6C357.1 479.5 357.5 471.3 350.4 476.6L346.7 479.5H197H47.3L43.6 476.6C36.6 471.3 37 479.2 37 352.1C37 273.1 37.3 236.2 38.1 234.3C39.5 230.6 42.8 227 46.5 225.4C49 224.3 75.8 224.1 198.2 224.3C346.6 224.5 346.9 224.5 349.6 226.6Z" fill="#919294"/>
<path stroke="#919294" stroke-width="20" d="M189.7 278C167.5 281.9 151.4 304.2 154.9 326.1C157 339.2 166.5 352.8 176.8 357.4L181 359.3V386.7C181 412 181.2 414.4 183 417.9C188.7 429.2 205.3 429.2 211 417.9C212.8 414.4 213 412 213 386.7V359.3L217.2 357.4C227.5 352.8 237 339.2 239.1 326.1C241.5 310.9 234 293.5 221.4 285.1C212 278.9 199.9 276.2 189.7 278ZM201.5 310.6C204.6 312 208 317 208 320C208 320.7 207.3 322.7 206.4 324.5C204.5 328.6 199.1 331.4 195 330.5C191.3 329.7 187.3 325.7 186.5 322C185.6 318 188.4 312.5 192.3 310.6C196.3 308.6 197.4 308.6 201.5 310.6Z" fill="#919294"/>
</g>
<defs>
<filter id="filter0_d_14_22" x="0.849976" y="0.2677" width="392.3" height="519.732" filterUnits="userSpaceOnUse" color-interpolation-filters="sRGB">
<feFlood flood-opacity="0" result="BackgroundImageFix"/>
<feColorMatrix in="SourceAlpha" type="matrix" values="0 0 0 0 0 0 0 0 0 0 0 0 0 0 0 0 0 0 127 0" result="hardAlpha"/>
<feOffset dy="4"/>
<feGaussianBlur stdDeviation="2"/>
<feComposite in2="hardAlpha" operator="out"/>
<feColorMatrix type="matrix" values="0 0 0 0 0 0 0 0 0 0 0 0 0 0 0 0 0 0 0.25 0"/>
<feBlend mode="normal" in2="BackgroundImageFix" result="effect1_dropShadow_14_22"/>
<feBlend mode="normal" in="SourceGraphic" in2="effect1_dropShadow_14_22" result="shape"/>
</filter>
</defs>
</svg>
