<svg width="10" height="10" viewBox="0 0 512 320" fill="none" xmlns="http://www.w3.org/2000/svg">
<path stroke="#919294" stroke-width="10" d="M235 0.599995C175.8 6.2 125.3 26.9 77.6 65.3C64.1 76.1 38.5 101.9 27.6 115.5C15.8 130.4 1.19999 152.3 0.399988 156.5C0.0999878 158.4 0.0999878 161.6 0.399988 163.5C1.19999 167.7 15.8 189.6 27.6 204.5C38.5 218.1 64.1 243.9 77.6 254.7C121 289.6 166.8 309.9 219.5 317.7C236.3 320.1 275.7 320.1 292.5 317.7C327.3 312.6 358.5 302.3 387.5 286.3C432.1 261.8 472.6 224.2 502 180.2C515 160.7 515 159.3 502 139.8C489.2 120.6 477.7 106.6 460 88.9C412 40.6 358 12.4 296 2.9C282.9 0.899995 246.4 -0.400005 235 0.599995ZM281.2 33.5C327.4 38.4 372.6 57.6 411.9 88.9C432.6 105.5 458 132.4 471.9 152.4L477.1 160L473 166C455.8 191.4 425.9 221.7 399.5 240.6C350.4 275.8 291.4 292.4 234.4 287C176.7 281.5 124.1 256 77.6 211C64.9 198.7 48.5 179.7 40.1 167.5L34.9 160L39.9 152.7C49.7 138.6 58.6 128.3 75.4 111.4C99.6 87.3 121.6 71.2 149.6 57.2C190.4 36.8 235.7 28.6 281.2 33.5Z" fill="#919294"/>
<path stroke="#919294" stroke-width="10" d="M239.3 65.5C219.2 69.1 202.8 77.9 188 92.9C175.1 105.9 166.8 120.7 162.3 138.6C159.9 148.1 159.9 171.9 162.3 181.4C166.8 199.3 175.1 214.1 188 227.1C205.7 245.1 226.5 254.4 251.5 255.7C279.2 257.1 303.4 247.6 323.5 227.5C337.2 213.8 345.1 199.9 349.7 181.4C352.1 171.9 352.1 148.1 349.7 138.6C347.2 128.7 342.5 117.6 337.2 109C331 98.8 316.6 84.7 306.1 78.2C286.5 66.2 261.6 61.4 239.3 65.5ZM269.5 97.5C291.1 102 310.4 119.8 317.3 141.5C320.4 151.4 320.4 168.6 317.3 178.5C311 198.4 294.4 215 274.5 221.3C268.8 223.1 265.2 223.5 255.5 223.5C245.1 223.4 242.5 223 236.2 220.8C225.7 217 218.6 212.5 210.5 204.5C185.8 179.9 186 140 211 115C226.5 99.4 248 93 269.5 97.5Z" fill="#919294"/>
</svg>
