<svg width="20" height="20" viewBox="0 0 384 448" fill="none" xmlns="http://www.w3.org/2000/svg">
<path stroke="#919294" stroke-width="10" d="M178 0.599993C148.2 4.39999 122.9 16.8 101.9 37.9C78.2 61.7 66 88.9 64.4 122C62.8 154.1 74.1 187.3 94.8 211L98.7 215.4L88.6 222.1C69.3 235 55 249.4 41.5 269.5C15.7 308.1 1.09998 361.5 0.599984 419.2C0.499984 439.7 0.699984 440.4 7.39998 445.4L10.1 447.5H192H373.9L376.6 445.4C382.2 441.3 383.5 438.5 383.9 429.7C384.3 419.1 382.3 389.8 380 374C369.8 304.1 340.9 252.3 295.4 222.1L285.3 215.4L289.2 211C309.8 187.4 321.1 154.6 319.6 122.5C318.1 89.2 305.8 61.5 282.1 37.9C263.6 19.4 244.1 8.59999 219 2.89999C210.7 0.999993 185.9 -0.400007 178 0.599993ZM215.1 34.9C233 39.5 247 47.6 260 60.9C272.9 73.9 281.2 88.7 285.7 106.6C288.1 116.1 288.1 139.9 285.7 149.4C281.1 167.6 273.2 181.7 260 195C246.3 208.9 232 217.1 213.4 221.7C203.6 224.1 181 224.1 171 221.7C134.6 212.9 107.4 185.8 98.3 149.4C95.9 139.9 95.9 116.1 98.3 106.6C102.9 88.4 111.1 73.8 124.4 60.4C140.2 44.7 154.9 37.3 180 32.6C185.9 31.5 207.7 32.9 215.1 34.9ZM135.4 242.5C154.7 252 170 255.5 192 255.5C214 255.5 229.3 252 248.6 242.4L257.7 238L262.1 239.8C264.5 240.9 269.7 243.6 273.5 246C305.9 265.8 327.8 296.9 340.6 341.2C346 360.1 348.9 378.2 351.5 410.2L352 416H192H32.1L32.6 408.7C38.1 330.2 61.6 278.5 105 249.5C110.7 245.7 124.7 238 125.9 238C126.2 238 130.5 240 135.4 242.5Z" fill="#919294"/>
</svg>
