<?xml version="1.0" standalone="no"?>
<!DOCTYPE svg PUBLIC "-//W3C//DTD SVG 20010904//EN"
 "http://www.w3.org/TR/2001/REC-SVG-20010904/DTD/svg10.dtd">
<svg version="1.0" xmlns="http://www.w3.org/2000/svg"
 width="512.000000pt" height="512.000000pt" viewBox="0 0 512.000000 512.000000"
 preserveAspectRatio="xMidYMid meet">

<g transform="translate(0.000000,512.000000) scale(0.100000,-0.100000)"
fill="#fff" stroke="none">
<path stroke="#fff" stroke-width="209" d="M2485 4631 c-92 -24 -173 -90 -215 -176 l-25 -50 0 -785 0 -785 24
-52 c28 -62 103 -136 169 -166 65 -29 179 -29 244 0 66 30 141 104 169 166
l24 52 0 785 0 785 -34 63 c-57 105 -144 160 -260 167 -36 2 -79 1 -96 -4z"/>
<path stroke="#fff" stroke-width="200" d="M1210 4104 c-67 -25 -119 -66 -205 -164 -97 -113 -143 -173 -210
-281 -511 -822 -387 -1891 298 -2571 949 -944 2527 -760 3234 377 295 474 386
1062 248 1606 -88 348 -273 680 -518 931 -81 83 -139 112 -237 116 -97 5 -171
-21 -234 -82 -77 -76 -112 -179 -96 -282 12 -75 41 -124 126 -217 178 -193
296 -423 356 -695 31 -140 31 -424 0 -564 -65 -297 -189 -526 -397 -733 -207
-208 -436 -332 -733 -397 -130 -29 -413 -31 -545 -5 -293 59 -544 193 -752
402 -210 209 -343 459 -402 752 -24 122 -24 404 0 526 54 268 178 515 363 717
101 111 119 150 119 260 0 73 -4 93 -28 142 -32 65 -90 122 -156 151 -62 27
-171 33 -231 11z"/>
</g>
</svg>
