<?xml version="1.0" standalone="no"?>
<!DOCTYPE svg PUBLIC "-//W3C//DTD SVG 20010904//EN"
 "http://www.w3.org/TR/2001/REC-SVG-20010904/DTD/svg10.dtd">
<svg version="1.0" xmlns="http://www.w3.org/2000/svg"
 width="512.000000pt" height="512.000000pt" viewBox="0 0 512.000000 512.000000"
 preserveAspectRatio="xMidYMid meet">

<g transform="translate(0.000000,512.000000) scale(0.100000,-0.100000)"
fill="#fff" stroke="none">
<path d="M2340 5110 c-796 -75 -1493 -496 -1930 -1166 -82 -126 -214 -388
-229 -454 -44 -191 52 -388 229 -469 162 -75 341 -41 463 88 40 42 70 90 119
191 169 346 411 604 735 783 504 278 1131 284 1633 15 89 -47 240 -146 240
-157 0 -4 -50 -15 -112 -24 -181 -27 -238 -68 -246 -178 -5 -68 16 -119 62
-153 51 -38 1306 -598 1353 -604 78 -9 160 49 183 129 5 17 10 357 11 755 l1
723 -24 43 c-52 95 -187 118 -267 45 -13 -12 -63 -82 -112 -154 -49 -73 -92
-133 -95 -133 -3 0 -36 28 -72 61 -321 295 -740 513 -1172 609 -217 48 -554
70 -770 50z"/>
<path d="M372 2119 c-46 -23 -78 -62 -92 -110 -5 -17 -10 -357 -11 -755 l-1
-723 24 -43 c52 -95 187 -118 267 -45 13 12 63 82 112 154 49 73 92 133 95
133 3 0 36 -28 72 -61 272 -250 631 -454 984 -559 614 -183 1259 -133 1838
141 519 247 936 660 1195 1184 78 158 95 208 95 290 0 256 -244 459 -489 406
-151 -32 -237 -113 -333 -311 -169 -346 -411 -604 -735 -783 -504 -278 -1131
-284 -1633 -15 -89 47 -240 146 -240 157 0 4 50 15 112 24 181 27 238 68 246
178 5 68 -16 119 -62 153 -17 13 -319 153 -671 311 -448 202 -653 289 -685
292 -33 3 -57 -2 -88 -18z"/>
</g>
</svg>
